<svg xmlns="http://www.w3.org/2000/svg" viewBox="0 0 520 640">
<defs>
<filter id="shadow" x="-20%" y="-20%" width="140%" height="140%"><feDropShadow dx="0" dy="8" stdDeviation="8" flood-color="#07101d" flood-opacity=".35"/></filter>
<linearGradient id="paper" x1="0" x2="1"><stop stop-color="#f7e4bd"/><stop offset="1" stop-color="#d2aa72"/></linearGradient>
<linearGradient id="sea" x1="0" y1="0" x2="1" y2="1"><stop stop-color="#12324c"/><stop offset="1" stop-color="#0a1424"/></linearGradient>
<linearGradient id="gold" x1="0" y1="0" x2="1" y2="1"><stop stop-color="#fff0a5"/><stop offset=".5" stop-color="#d6a83e"/><stop offset="1" stop-color="#8c5d12"/></linearGradient>
<style><![CDATA[
.ar{font-family:'Amiri','Noto Naskh Arabic','Tahoma',sans-serif;direction:rtl}
.small{font-size:18px;fill:#2b2116;font-weight:700}.label{font-size:28px;fill:#2b2116;font-weight:800}.white{fill:#fff7df}.stroke{stroke:#3d2b1a;stroke-width:3;stroke-linecap:round;stroke-linejoin:round}
]]></style>
</defs>
<rect width="520" height="640" rx="42" fill="#102235"/>
<circle cx="260" cy="188" r="118" fill="#d3a86b"/><path d="M160 190 C190 110,335 104,365 190 C344 114,181 116,160 190Z" fill="#6f4e2b"/>
<path d="M135 167 C180 57,326 40,388 158 C328 123,212 126,135 167Z" fill="#f5dfb0" stroke="#7d5b32" stroke-width="5"/>
<path d="M172 169 C214 117,309 105,354 162" fill="none" stroke="#7d5b32" stroke-width="8" stroke-linecap="round"/>
<circle cx="220" cy="194" r="12" fill="#1e1a17"/><circle cx="303" cy="194" r="12" fill="#1e1a17"/>
<path d="M230 246 C257 268,296 265,319 245" fill="none" stroke="#5c2e21" stroke-width="7" stroke-linecap="round"/>
<path d="M196 226 C235 238,285 238,324 224" fill="none" stroke="#4c2a1f" stroke-width="9" stroke-linecap="round"/>
<path d="M135 615 C145 395,189 319,260 319 C334 319,389 402,402 615Z" fill="#1f6d72" filter="url(#shadow)"/>
<path d="M188 335 C225 382,285 383,333 335 L302 615 L220 615Z" fill="#f8e4b8" opacity=".9"/>
<path d="M119 410 C58 472,62 535,131 563" fill="none" stroke="#d3a86b" stroke-width="34" stroke-linecap="round"/>
<path d="M401 408 C478 446,469 540,393 560" fill="none" stroke="#d3a86b" stroke-width="34" stroke-linecap="round"/>
<g transform="translate(72 448) rotate(-9)"><rect width="168" height="116" rx="12" fill="#f6e4bc" stroke="#6a4b27" stroke-width="5"/><path d="M26 34 H139 M26 59 H139 M26 84 H102" stroke="#6a4b27" stroke-width="5" stroke-linecap="round"/></g>
<g transform="translate(337 438)"><circle r="46" fill="#1b2d45" stroke="#d6a83e" stroke-width="6"/><path d="M0-36 L8-8 36 0 8 8 0 36 -8 8 -36 0 -8-8Z" fill="url(#gold)"/></g>
<text x="260" y="56" text-anchor="middle" class="ar white" font-size="35" font-weight="900">المرشد أطلس</text>
<text x="260" y="604" text-anchor="middle" class="ar white" font-size="23" opacity=".9">التاريخ فهمٌ للسبب والنتيجة</text>
</svg>