<svg xmlns="http://www.w3.org/2000/svg" width="1600" height="800" viewBox="0 0 1600 800" role="img" aria-label="واجهة الحرب العالمية الأولى">
<defs>
  <linearGradient id="bg" x1="0" y1="0" x2="1" y2="1"><stop offset="0" stop-color="#f7e6c7"/><stop offset="1" stop-color="#d2a66c"/></linearGradient>
  <linearGradient id="dark" x1="0" y1="0" x2="1" y2="1"><stop offset="0" stop-color="#3d2b20"/><stop offset="1" stop-color="#7b4f2c"/></linearGradient>
  <filter id="shadow" x="-20%" y="-20%" width="140%" height="140%"><feDropShadow dx="0" dy="6" stdDeviation="8" flood-color="#3b2415" flood-opacity="0.22"/></filter>
  <style>
    .title{font:700 42px Tahoma,Arial,sans-serif; fill:#3b2415}
    .sub{font:600 24px Tahoma,Arial,sans-serif; fill:#5a3a24}
    .txt{font:500 21px Tahoma,Arial,sans-serif; fill:#3b2415}
    .small{font:500 17px Tahoma,Arial,sans-serif; fill:#4c3322}
    .label{font:700 18px Tahoma,Arial,sans-serif; fill:#fff}
    .card{fill:#fff9ef; stroke:#9b6b3d; stroke-width:2; filter:url(#shadow)}
  </style>
</defs>

<rect width="1600" height="800" fill="url(#bg)"/>
<g opacity=".17" stroke="#6b4b2c" stroke-width="3" fill="none">
  <path d="M85 132 C240 78, 324 175, 480 120 S813 60, 920 146 1230 230, 1510 110"/>
  <path d="M120 245 C290 195, 440 290, 610 240 S930 160, 1080 250 1320 345, 1518 240"/>
  <path d="M180 620 C375 560, 550 690, 750 610 S1070 485, 1300 630 1460 680, 1548 590"/>
</g>
<g transform="translate(0,555)">
  <path d="M0,120 C120,50 240,100 350,55 C505,-5 600,105 760,45 C900,-10 1040,85 1180,35 C1340,-20 1475,65 1600,20 L1600,245 L0,245 Z" fill="#3e291d"/>
  <path d="M0,190 C180,125 260,170 370,130 C510,75 650,190 790,125 C940,60 1040,165 1215,105 C1400,45 1500,120 1600,90 L1600,245 L0,245 Z" fill="#6d4a31"/>
  <g stroke="#1e160f" stroke-width="10"><path d="M105 150 l65 -65 M170 150 l-65 -65 M320 130 l62 -62 M382 130 l-62 -62 M1240 115 l72 -72 M1312 115 l-72 -72"/></g>
</g>
<g opacity=".85" transform="translate(1280,420)">
  <rect x="0" y="0" width="80" height="130" rx="35" fill="#2c2118"/><circle cx="40" cy="-20" r="35" fill="#57402d"/><rect x="17" y="-55" width="46" height="28" rx="12" fill="#51422f"/>
  <path d="M-80,38 h170" stroke="#2b2118" stroke-width="14" stroke-linecap="round"/>
</g>
<g transform="translate(92,88)">
  <rect width="760" height="308" rx="32" fill="#fff8e9" opacity=".90" filter="url(#shadow)"/>
  <text x="710" y="82" text-anchor="end" class="title">الحرب العالمية الأولى</text>
  <text x="710" y="132" text-anchor="end" class="sub">من شرارة سراييفو إلى عالم جديد</text>
  <text x="710" y="192" text-anchor="end" class="txt">درس تفاعلي بصري لتلاميذ الثالثة إعدادي</text>
  <text x="710" y="238" text-anchor="end" class="small">أسباب • مراحل • خنادق • نتائج • صلح</text>
</g>
<g transform="translate(1070,105)" opacity=".92">
  <circle cx="170" cy="170" r="158" fill="#fff5df" stroke="#9b6b3d" stroke-width="5" filter="url(#shadow)"/>
  <path d="M80 170 h180 M170 80 v180 M105 112 C160 150, 210 150, 238 105 M100 230 C145 190, 202 195, 235 235" stroke="#86613a" stroke-width="4" fill="none"/>
  <text x="170" y="178" text-anchor="middle" class="sub">أوروبا</text>
</g>

</svg>
