<svg xmlns="http://www.w3.org/2000/svg" viewBox="0 0 1200 640">
<defs>
<filter id="shadow" x="-20%" y="-20%" width="140%" height="140%"><feDropShadow dx="0" dy="8" stdDeviation="8" flood-color="#07101d" flood-opacity=".35"/></filter>
<linearGradient id="paper" x1="0" x2="1"><stop stop-color="#f7e4bd"/><stop offset="1" stop-color="#d2aa72"/></linearGradient>
<linearGradient id="sea" x1="0" y1="0" x2="1" y2="1"><stop stop-color="#12324c"/><stop offset="1" stop-color="#0a1424"/></linearGradient>
<linearGradient id="gold" x1="0" y1="0" x2="1" y2="1"><stop stop-color="#fff0a5"/><stop offset=".5" stop-color="#d6a83e"/><stop offset="1" stop-color="#8c5d12"/></linearGradient>
<style><![CDATA[
.ar{font-family:'Amiri','Noto Naskh Arabic','Tahoma',sans-serif;direction:rtl}
.small{font-size:18px;fill:#2b2116;font-weight:700}.label{font-size:28px;fill:#2b2116;font-weight:800}.white{fill:#fff7df}.stroke{stroke:#3d2b1a;stroke-width:3;stroke-linecap:round;stroke-linejoin:round}
]]></style>
</defs>
<rect width="1200" height="640" rx="46" fill="url(#sea)"/>
<circle cx="1010" cy="110" r="85" fill="#d6a83e" opacity=".15"/><circle cx="260" cy="520" r="130" fill="#52a5bd" opacity=".08"/>
<path d="M101 84 C242 32,363 91,509 56 C653 21,821 44,1048 75 C1119 85,1141 146,1112 207 C1071 292,1114 370,1044 489 C958 634,767 560,625 589 C430 630,318 590,183 567 C61 547,57 430,84 335 C110 244,20 145,101 84 Z" fill="url(#paper)" filter="url(#shadow)"/>
<path d="M260 180 C350 125,443 143,528 183 C617 225,684 182,771 196 C877 213,911 285,1007 324" fill="none" stroke="#31495c" stroke-width="5" opacity=".4"/>
<path d="M220 385 C319 324,416 360,505 315 C612 260,738 302,860 273" fill="none" stroke="#31495c" stroke-width="5" opacity=".4"/>
<g opacity=".86">
<path d="M235 247 C285 217,320 254,356 230 C385 211,418 229,438 264 C401 288,357 286,323 312 C285 338,239 310,235 247Z" fill="#b89f61" stroke="#57411f" stroke-width="3"/>
<path d="M498 207 C550 171,623 201,648 253 C607 279,560 264,524 296 C488 328,444 289,498 207Z" fill="#c8b075" stroke="#57411f" stroke-width="3"/>
<path d="M710 234 C770 197,853 209,903 265 C877 319,795 306,760 352 C717 335,689 286,710 234Z" fill="#bfa365" stroke="#57411f" stroke-width="3"/>
<path d="M560 365 C625 323,725 335,773 410 C719 466,602 449,560 365Z" fill="#ceb67c" stroke="#57411f" stroke-width="3"/>
</g>
<path d="M256 244 C445 185,646 214,864 272" fill="none" stroke="#2b7bbb" stroke-width="8" stroke-dasharray="16 14" opacity=".9"/>
<path d="M334 313 C486 359,651 323,773 410" fill="none" stroke="#c83232" stroke-width="8" stroke-dasharray="16 14" opacity=".88"/>
<g transform="translate(930 420)"><circle r="70" fill="#1e2f42" stroke="#d6a83e" stroke-width="6"/><path d="M0-58 L14-12 58 0 14 12 0 58 -14 12 -58 0 -14-12Z" fill="url(#gold)"/><circle r="13" fill="#fff7df"/></g>
<text x="600" y="95" text-anchor="middle" class="ar white" font-size="46" font-weight="900">من برميل البارود إلى قصر فرساي</text>
<text x="600" y="145" text-anchor="middle" class="ar white" font-size="24" opacity=".9">خريطة رحلة الحرب العالمية الأولى 1914–1918 وتسوية 1919</text>
<g transform="translate(94 455)"><rect width="330" height="70" rx="22" fill="#091525" opacity=".72"/><text x="300" y="45" text-anchor="end" class="ar white" font-size="24">الأزرق: الوفاق | الأحمر: دول المركز</text></g>
</svg>