<svg xmlns="http://www.w3.org/2000/svg" viewBox="0 0 900 560">
<defs>
<filter id="shadow" x="-20%" y="-20%" width="140%" height="140%"><feDropShadow dx="0" dy="8" stdDeviation="8" flood-color="#07101d" flood-opacity=".35"/></filter>
<linearGradient id="paper" x1="0" x2="1"><stop stop-color="#f7e4bd"/><stop offset="1" stop-color="#d2aa72"/></linearGradient>
<linearGradient id="sea" x1="0" y1="0" x2="1" y2="1"><stop stop-color="#12324c"/><stop offset="1" stop-color="#0a1424"/></linearGradient>
<linearGradient id="gold" x1="0" y1="0" x2="1" y2="1"><stop stop-color="#fff0a5"/><stop offset=".5" stop-color="#d6a83e"/><stop offset="1" stop-color="#8c5d12"/></linearGradient>
<style><![CDATA[
.ar{font-family:'Amiri','Noto Naskh Arabic','Tahoma',sans-serif;direction:rtl}
.small{font-size:18px;fill:#2b2116;font-weight:700}.label{font-size:28px;fill:#2b2116;font-weight:800}.white{fill:#fff7df}.stroke{stroke:#3d2b1a;stroke-width:3;stroke-linecap:round;stroke-linejoin:round}
]]></style>
</defs>
<rect width="900" height="560" rx="42" fill="#13304b"/>
<circle cx="450" cy="295" r="168" fill="#6bb7c8" opacity=".86" stroke="#f7e4bd" stroke-width="8"/>
<path d="M333 245 C397 208,455 229,512 206 C548 191,593 215,605 256 C578 275,537 273,517 307 C493 347,431 329,400 360 C360 334,331 305,333 245Z" fill="#2e755d"/>
<path d="M278 315 C334 296,383 313,427 298 C475 281,538 307,590 293" fill="none" stroke="#1d5a48" stroke-width="10" opacity=".6"/>
<g transform="translate(270 103)"><path d="M20 120 C85 32,170 30,250 105 C184 92,127 107,82 159 C63 141,42 129,20 120Z" fill="white"/><path d="M96 117 C83 64,122 27,173 48 C142 74,133 104,150 139Z" fill="white"/><circle cx="164" cy="51" r="8" fill="#1a1a1a"/><path d="M178 45 L225 28 L188 68Z" fill="#d6a83e"/></g>
<text x="450" y="70" text-anchor="middle" class="ar white" font-size="39" font-weight="900">عصبة الأمم</text>
<text x="450" y="500" text-anchor="middle" class="ar white" font-size="25">منظمة دولية لحفظ السلم وحل النزاعات سلمياً</text>
</svg>