<svg xmlns="http://www.w3.org/2000/svg" viewBox="0 0 800 560">
<defs>
<filter id="shadow" x="-20%" y="-20%" width="140%" height="140%"><feDropShadow dx="0" dy="8" stdDeviation="8" flood-color="#07101d" flood-opacity=".35"/></filter>
<linearGradient id="paper" x1="0" x2="1"><stop stop-color="#f7e4bd"/><stop offset="1" stop-color="#d2aa72"/></linearGradient>
<linearGradient id="sea" x1="0" y1="0" x2="1" y2="1"><stop stop-color="#12324c"/><stop offset="1" stop-color="#0a1424"/></linearGradient>
<linearGradient id="gold" x1="0" y1="0" x2="1" y2="1"><stop stop-color="#fff0a5"/><stop offset=".5" stop-color="#d6a83e"/><stop offset="1" stop-color="#8c5d12"/></linearGradient>
<style><![CDATA[
.ar{font-family:'Amiri','Noto Naskh Arabic','Tahoma',sans-serif;direction:rtl}
.small{font-size:18px;fill:#2b2116;font-weight:700}.label{font-size:28px;fill:#2b2116;font-weight:800}.white{fill:#fff7df}.stroke{stroke:#3d2b1a;stroke-width:3;stroke-linecap:round;stroke-linejoin:round}
]]></style>
</defs>
<rect width="800" height="560" rx="42" fill="#102236"/>
<g transform="translate(140 160)" filter="url(#shadow)">
<path d="M25 155 C45 35,145 0,260 0 C375 0,475 35,495 155Z" fill="#8c5d12" stroke="#3e250b" stroke-width="8"/>
<rect x="20" y="150" width="480" height="240" rx="30" fill="#b97920" stroke="#3e250b" stroke-width="8"/>
<path d="M35 155 H485 M100 13 V390 M420 13 V390" stroke="#f0c65b" stroke-width="16" opacity=".7"/>
<rect x="215" y="220" width="90" height="86" rx="14" fill="#3e250b" stroke="#f0c65b" stroke-width="7"/><circle cx="260" cy="258" r="13" fill="#f0c65b"/><path d="M260 267 V292" stroke="#f0c65b" stroke-width="7" stroke-linecap="round"/>
</g>
<text x="400" y="80" text-anchor="middle" class="ar white" font-size="42" font-weight="900">صندوق الذاكرة</text>
<text x="400" y="505" text-anchor="middle" class="ar white" font-size="24">اجمع أختام الفهم الستة لفتح الصندوق</text>
</svg>