<svg xmlns="http://www.w3.org/2000/svg" viewBox="0 0 900 560">
<defs>
<filter id="shadow" x="-20%" y="-20%" width="140%" height="140%"><feDropShadow dx="0" dy="8" stdDeviation="8" flood-color="#07101d" flood-opacity=".35"/></filter>
<linearGradient id="paper" x1="0" x2="1"><stop stop-color="#f7e4bd"/><stop offset="1" stop-color="#d2aa72"/></linearGradient>
<linearGradient id="sea" x1="0" y1="0" x2="1" y2="1"><stop stop-color="#12324c"/><stop offset="1" stop-color="#0a1424"/></linearGradient>
<linearGradient id="gold" x1="0" y1="0" x2="1" y2="1"><stop stop-color="#fff0a5"/><stop offset=".5" stop-color="#d6a83e"/><stop offset="1" stop-color="#8c5d12"/></linearGradient>
<style><![CDATA[
.ar{font-family:'Amiri','Noto Naskh Arabic','Tahoma',sans-serif;direction:rtl}
.small{font-size:18px;fill:#2b2116;font-weight:700}.label{font-size:28px;fill:#2b2116;font-weight:800}.white{fill:#fff7df}.stroke{stroke:#3d2b1a;stroke-width:3;stroke-linecap:round;stroke-linejoin:round}
]]></style>
</defs>
<rect width="900" height="560" rx="42" fill="#17202f"/>
<g transform="translate(330 120)" filter="url(#shadow)">
<ellipse cx="120" cy="35" rx="118" ry="35" fill="#8a4d2a" stroke="#2e1a12" stroke-width="6"/>
<path d="M5 35 C23 180,20 322,120 350 C220 322,217 180,235 35Z" fill="#a35b2e" stroke="#2e1a12" stroke-width="6"/>
<ellipse cx="120" cy="350" rx="100" ry="28" fill="#6c3b20" stroke="#2e1a12" stroke-width="6"/>
<path d="M25 105 H215 M16 250 H224" stroke="#2e1a12" stroke-width="14" opacity=".8"/>
<text x="120" y="205" text-anchor="middle" class="ar white" font-size="48" font-weight="900">توتر</text>
</g>
<path d="M553 122 C625 55,696 60,750 110" fill="none" stroke="#f2cb53" stroke-width="8" stroke-dasharray="14 14"><animate attributeName="stroke-dashoffset" values="0;80" dur="1.1s" repeatCount="indefinite"/></path>
<circle cx="760" cy="112" r="18" fill="#ffcf4a"><animate attributeName="r" values="12;28;12" dur="1.1s" repeatCount="indefinite"/></circle>
<g class="ar" font-weight="800" font-size="26">
<rect x="70" y="88" width="220" height="75" rx="18" fill="#f7e4bd"/><text x="258" y="135" text-anchor="end">القومية</text>
<rect x="70" y="198" width="220" height="75" rx="18" fill="#f7e4bd"/><text x="258" y="245" text-anchor="end">الإمبريالية</text>
<rect x="610" y="235" width="220" height="75" rx="18" fill="#f7e4bd"/><text x="800" y="282" text-anchor="end">التسلح</text>
<rect x="610" y="345" width="220" height="75" rx="18" fill="#f7e4bd"/><text x="800" y="392" text-anchor="end">الأحلاف</text>
</g>
<text x="450" y="505" text-anchor="middle" class="ar white" font-size="33" font-weight="900">أوروبا قبل 1914: برميل بارود ينتظر الشرارة</text>
</svg>