<svg xmlns="http://www.w3.org/2000/svg" viewBox="0 0 980 620">
<defs>
<filter id="shadow" x="-20%" y="-20%" width="140%" height="140%"><feDropShadow dx="0" dy="8" stdDeviation="8" flood-color="#07101d" flood-opacity=".35"/></filter>
<linearGradient id="paper" x1="0" x2="1"><stop stop-color="#f7e4bd"/><stop offset="1" stop-color="#d2aa72"/></linearGradient>
<linearGradient id="sea" x1="0" y1="0" x2="1" y2="1"><stop stop-color="#12324c"/><stop offset="1" stop-color="#0a1424"/></linearGradient>
<linearGradient id="gold" x1="0" y1="0" x2="1" y2="1"><stop stop-color="#fff0a5"/><stop offset=".5" stop-color="#d6a83e"/><stop offset="1" stop-color="#8c5d12"/></linearGradient>
<style><![CDATA[
.ar{font-family:'Amiri','Noto Naskh Arabic','Tahoma',sans-serif;direction:rtl}
.small{font-size:18px;fill:#2b2116;font-weight:700}.label{font-size:28px;fill:#2b2116;font-weight:800}.white{fill:#fff7df}.stroke{stroke:#3d2b1a;stroke-width:3;stroke-linecap:round;stroke-linejoin:round}
]]></style>
</defs>
<rect width="980" height="620" rx="42" fill="#102236"/>
<text x="490" y="66" text-anchor="middle" class="ar white" font-size="38" font-weight="900">حصيلة حرب مدمرة</text>
<g class="ar" text-anchor="middle" font-weight="900" filter="url(#shadow)">
<circle cx="250" cy="225" r="110" fill="#c83232"/><text x="250" y="215" fill="white" font-size="30">بشرية</text><text x="250" y="255" fill="white" font-size="20">قتلى ومعطوبون</text>
<circle cx="730" cy="225" r="110" fill="#d6a83e"/><text x="730" y="215" fill="#20170b" font-size="30">اقتصادية</text><text x="730" y="255" fill="#20170b" font-size="20">ديون وتراجع</text>
<circle cx="250" cy="445" r="110" fill="#2b7bbb"/><text x="250" y="435" fill="white" font-size="30">اجتماعية</text><text x="250" y="475" fill="white" font-size="20">فقر وبطالة</text>
<circle cx="730" cy="445" r="110" fill="#5a7f6f"/><text x="730" y="435" fill="white" font-size="30">سياسية</text><text x="730" y="475" fill="white" font-size="20">فرساي وعصبة الأمم</text>
</g>
<path d="M490 180 V495 M310 225 H670 M310 445 H670" stroke="#f7e4bd" stroke-width="8" opacity=".55" stroke-linecap="round"/>
<circle cx="490" cy="335" r="78" fill="#f7e4bd"/><text x="490" y="327" text-anchor="middle" class="ar" font-size="25" font-weight="900" fill="#1c1407">نتائج</text><text x="490" y="362" text-anchor="middle" class="ar" font-size="25" font-weight="900" fill="#1c1407">الحرب</text>
</svg>