<svg xmlns="http://www.w3.org/2000/svg" viewBox="0 0 900 560">
<defs>
<filter id="shadow" x="-20%" y="-20%" width="140%" height="140%"><feDropShadow dx="0" dy="8" stdDeviation="8" flood-color="#07101d" flood-opacity=".35"/></filter>
<linearGradient id="paper" x1="0" x2="1"><stop stop-color="#f7e4bd"/><stop offset="1" stop-color="#d2aa72"/></linearGradient>
<linearGradient id="sea" x1="0" y1="0" x2="1" y2="1"><stop stop-color="#12324c"/><stop offset="1" stop-color="#0a1424"/></linearGradient>
<linearGradient id="gold" x1="0" y1="0" x2="1" y2="1"><stop stop-color="#fff0a5"/><stop offset=".5" stop-color="#d6a83e"/><stop offset="1" stop-color="#8c5d12"/></linearGradient>
<style><![CDATA[
.ar{font-family:'Amiri','Noto Naskh Arabic','Tahoma',sans-serif;direction:rtl}
.small{font-size:18px;fill:#2b2116;font-weight:700}.label{font-size:28px;fill:#2b2116;font-weight:800}.white{fill:#fff7df}.stroke{stroke:#3d2b1a;stroke-width:3;stroke-linecap:round;stroke-linejoin:round}
]]></style>
</defs>
<rect width="900" height="560" rx="42" fill="#1b2635"/>
<path d="M0 410 C145 360,280 406,430 372 C582 337,739 365,900 316 V560 H0Z" fill="#203a4a"/>
<g transform="translate(70 170)"><rect width="150" height="210" fill="#c59f6c"/><polygon points="-15,0 75,-60 165,0" fill="#6a3e2c"/><rect x="22" y="65" width="40" height="60" fill="#26364a"/><rect x="90" y="65" width="40" height="60" fill="#26364a"/></g>
<g transform="translate(670 145)"><rect width="150" height="230" fill="#bc8d61"/><polygon points="-15,0 75,-70 165,0" fill="#5b3528"/><rect x="45" y="95" width="55" height="135" fill="#2e4054"/></g>
<g transform="translate(338 315)" filter="url(#shadow)"><rect x="0" y="35" width="210" height="72" rx="30" fill="#1e1e1d"/><circle cx="55" cy="120" r="28" fill="#151515"/><circle cx="165" cy="120" r="28" fill="#151515"/><path d="M35 35 C83 -25,155 -20,194 35Z" fill="#7b2e2e"/><rect x="78" y="-3" width="48" height="38" fill="#d9c6a0"/></g>
<g transform="translate(381 53)"><rect width="180" height="150" rx="18" fill="#f6e6be" stroke="#7b5830" stroke-width="5"/><text x="90" y="45" text-anchor="middle" class="ar" font-size="24" font-weight="800">سراييفو</text><text x="90" y="96" text-anchor="middle" font-size="42" font-weight="900" fill="#8c2b25">28</text><text x="90" y="128" text-anchor="middle" class="ar" font-size="22" font-weight="700">يونيو 1914</text></g>
<path d="M560 215 C628 175,670 198,704 248" fill="none" stroke="#f6ce49" stroke-width="8" stroke-dasharray="12 13"><animate attributeName="stroke-dashoffset" values="0;70" dur="1s" repeatCount="indefinite"/></path>
<circle cx="714" cy="255" r="15" fill="#ffd45b"/><text x="450" y="498" text-anchor="middle" class="ar white" font-size="34" font-weight="900">شرارة سراييفو: السبب المباشر لاندلاع الحرب</text>
</svg>