<svg xmlns="http://www.w3.org/2000/svg" viewBox="0 0 1100 420">
<defs>
<filter id="shadow" x="-20%" y="-20%" width="140%" height="140%"><feDropShadow dx="0" dy="8" stdDeviation="8" flood-color="#07101d" flood-opacity=".35"/></filter>
<linearGradient id="paper" x1="0" x2="1"><stop stop-color="#f7e4bd"/><stop offset="1" stop-color="#d2aa72"/></linearGradient>
<linearGradient id="sea" x1="0" y1="0" x2="1" y2="1"><stop stop-color="#12324c"/><stop offset="1" stop-color="#0a1424"/></linearGradient>
<linearGradient id="gold" x1="0" y1="0" x2="1" y2="1"><stop stop-color="#fff0a5"/><stop offset=".5" stop-color="#d6a83e"/><stop offset="1" stop-color="#8c5d12"/></linearGradient>
<style><![CDATA[
.ar{font-family:'Amiri','Noto Naskh Arabic','Tahoma',sans-serif;direction:rtl}
.small{font-size:18px;fill:#2b2116;font-weight:700}.label{font-size:28px;fill:#2b2116;font-weight:800}.white{fill:#fff7df}.stroke{stroke:#3d2b1a;stroke-width:3;stroke-linecap:round;stroke-linejoin:round}
]]></style>
</defs>
<rect width="1100" height="420" rx="40" fill="#102236"/>
<path d="M95 292 H1005" stroke="#f2dcad" stroke-width="12" stroke-linecap="round"/>
<path d="M95 325 H1005" stroke="#82623a" stroke-width="8" stroke-linecap="round"/>
<g stroke="#82623a" stroke-width="5"><path d="M140 275 L110 340"/><path d="M260 275 L230 340"/><path d="M380 275 L350 340"/><path d="M500 275 L470 340"/><path d="M620 275 L590 340"/><path d="M740 275 L710 340"/><path d="M860 275 L830 340"/><path d="M980 275 L950 340"/></g>
<g filter="url(#shadow)"><rect x="112" y="164" width="190" height="88" rx="22" fill="#c83232"/><rect x="314" y="164" width="190" height="88" rx="22" fill="#d6a83e"/><rect x="516" y="164" width="190" height="88" rx="22" fill="#2b7bbb"/><rect x="718" y="164" width="190" height="88" rx="22" fill="#5a7f6f"/><circle cx="162" cy="261" r="25" fill="#151515"/><circle cx="252" cy="261" r="25" fill="#151515"/><circle cx="364" cy="261" r="25" fill="#151515"/><circle cx="454" cy="261" r="25" fill="#151515"/><circle cx="566" cy="261" r="25" fill="#151515"/><circle cx="656" cy="261" r="25" fill="#151515"/><circle cx="768" cy="261" r="25" fill="#151515"/><circle cx="858" cy="261" r="25" fill="#151515"/></g>
<g class="ar" text-anchor="middle" font-weight="900"><text x="207" y="218" fill="white" font-size="34">1914</text><text x="409" y="218" fill="#1c1407" font-size="34">1917</text><text x="611" y="218" fill="white" font-size="34">1918</text><text x="813" y="218" fill="white" font-size="34">1919</text></g>
<text x="550" y="70" text-anchor="middle" class="ar white" font-size="37" font-weight="900">قطار الزمن: من اندلاع الحرب إلى تسوية الصلح</text>
<text x="550" y="378" text-anchor="middle" class="ar white" font-size="23">1918 نهاية العمليات العسكرية، و1919 سنة مؤتمر الصلح ومعاهدة فرساي</text>
</svg>