<svg xmlns="http://www.w3.org/2000/svg" width="1600" height="900" viewBox="0 0 1600 900" role="img" aria-label="مشهد الخنادق">
<defs>
  <linearGradient id="bg" x1="0" y1="0" x2="1" y2="1"><stop offset="0" stop-color="#f7e6c7"/><stop offset="1" stop-color="#d2a66c"/></linearGradient>
  <linearGradient id="dark" x1="0" y1="0" x2="1" y2="1"><stop offset="0" stop-color="#3d2b20"/><stop offset="1" stop-color="#7b4f2c"/></linearGradient>
  <filter id="shadow" x="-20%" y="-20%" width="140%" height="140%"><feDropShadow dx="0" dy="6" stdDeviation="8" flood-color="#3b2415" flood-opacity="0.22"/></filter>
  <style>
    .title{font:700 42px Tahoma,Arial,sans-serif; fill:#3b2415}
    .sub{font:600 24px Tahoma,Arial,sans-serif; fill:#5a3a24}
    .txt{font:500 21px Tahoma,Arial,sans-serif; fill:#3b2415}
    .small{font:500 17px Tahoma,Arial,sans-serif; fill:#4c3322}
    .label{font:700 18px Tahoma,Arial,sans-serif; fill:#fff}
    .card{fill:#fff9ef; stroke:#9b6b3d; stroke-width:2; filter:url(#shadow)}
  </style>
</defs>

<rect width="1600" height="900" fill="#ead8b9"/>
<text x="800" y="70" text-anchor="middle" class="title">مشهد تعليمي: حرب الخنادق</text>
<text x="800" y="112" text-anchor="middle" class="sub">اضغط في التطبيق على الوسوم لفهم مكونات المشهد</text>
<rect x="80" y="180" width="1440" height="620" rx="36" fill="#c7a06a" filter="url(#shadow)"/>
<path d="M80 360 C300 290, 450 400, 640 320 C830 240, 1020 410, 1240 330 C1370 285, 1465 300, 1520 340 L1520 800 L80 800 Z" fill="#5b3c27"/>
<path d="M80 520 C290 450, 430 575, 690 490 C920 415, 1060 580, 1280 500 C1390 460, 1480 450, 1520 480 L1520 800 L80 800 Z" fill="#7a5637"/>
<g stroke="#2e2016" stroke-width="7" stroke-linecap="round">
 <path d="M190 360 L300 285 M300 360 L190 285 M520 315 L620 240 M620 315 L520 240 M1110 330 L1220 250 M1220 330 L1110 250"/>
</g>
<g transform="translate(760,500)">
  <rect x="-40" y="0" width="80" height="145" rx="36" fill="#2d241b"/><circle cx="0" cy="-24" r="36" fill="#5e4a34"/><rect x="-28" y="-58" width="56" height="28" rx="12" fill="#4d3d2c"/>
</g>
<g transform="translate(1040,480)">
  <rect x="-40" y="0" width="80" height="140" rx="36" fill="#2d241b"/><circle cx="0" cy="-22" r="35" fill="#5e4a34"/><path d="M-90 35 H85" stroke="#2d241b" stroke-width="14" stroke-linecap="round"/>
</g>
<g class="small">
 <rect x="180" y="210" width="210" height="54" rx="18" fill="#8c2f27"/><text x="285" y="245" text-anchor="middle" fill="#fff">الأسلاك الشائكة</text>
 <line x1="285" y1="264" x2="260" y2="320" stroke="#8c2f27" stroke-width="4"/>
 <rect x="600" y="220" width="160" height="54" rx="18" fill="#326da8"/><text x="680" y="255" text-anchor="middle" fill="#fff">الخندق</text>
 <line x1="680" y1="274" x2="660" y2="520" stroke="#326da8" stroke-width="4"/>
 <rect x="980" y="210" width="180" height="54" rx="18" fill="#6c4b30"/><text x="1070" y="245" text-anchor="middle" fill="#fff">الجنود</text>
 <line x1="1070" y1="264" x2="1040" y2="445" stroke="#6c4b30" stroke-width="4"/>
 <rect x="1220" y="635" width="170" height="54" rx="18" fill="#8c2f27"/><text x="1305" y="670" text-anchor="middle" fill="#fff">المدفعية</text>
</g>

</svg>
