<svg xmlns="http://www.w3.org/2000/svg" viewBox="0 0 900 560">
<defs>
<filter id="shadow" x="-20%" y="-20%" width="140%" height="140%"><feDropShadow dx="0" dy="8" stdDeviation="8" flood-color="#07101d" flood-opacity=".35"/></filter>
<linearGradient id="paper" x1="0" x2="1"><stop stop-color="#f7e4bd"/><stop offset="1" stop-color="#d2aa72"/></linearGradient>
<linearGradient id="sea" x1="0" y1="0" x2="1" y2="1"><stop stop-color="#12324c"/><stop offset="1" stop-color="#0a1424"/></linearGradient>
<linearGradient id="gold" x1="0" y1="0" x2="1" y2="1"><stop stop-color="#fff0a5"/><stop offset=".5" stop-color="#d6a83e"/><stop offset="1" stop-color="#8c5d12"/></linearGradient>
<style><![CDATA[
.ar{font-family:'Amiri','Noto Naskh Arabic','Tahoma',sans-serif;direction:rtl}
.small{font-size:18px;fill:#2b2116;font-weight:700}.label{font-size:28px;fill:#2b2116;font-weight:800}.white{fill:#fff7df}.stroke{stroke:#3d2b1a;stroke-width:3;stroke-linecap:round;stroke-linejoin:round}
]]></style>
</defs>
<rect width="900" height="560" rx="42" fill="#233244"/>
<path d="M0 105 C140 50,280 114,433 73 C585 32,710 87,900 50 V0 H0Z" fill="#44586a" opacity=".55"/>
<path d="M0 375 C135 325,279 350,418 313 C592 266,725 320,900 270 V560 H0Z" fill="#59452e"/>
<path d="M0 446 C170 382,315 446,468 388 C622 329,750 398,900 342 V560 H0Z" fill="#2b2119"/>
<g stroke="#8a6b45" stroke-width="9"><path d="M90 330 L185 485"/><path d="M220 295 L332 520"/><path d="M507 290 L610 530"/><path d="M760 267 L840 504"/></g>
<g transform="translate(560 230)"><path d="M0 90 C30 35,115 35,145 90 Z" fill="#56614a" stroke="#202820" stroke-width="5"/><ellipse cx="72" cy="95" rx="75" ry="18" fill="#384233"/></g>
<g transform="translate(245 300) rotate(-12)"><rect width="160" height="105" rx="12" fill="#f1dfba" stroke="#6a4b27" stroke-width="5"/><path d="M22 34 H135 M22 58 H135 M22 81 H100" stroke="#6a4b27" stroke-width="5" stroke-linecap="round"/></g>
<text x="450" y="70" text-anchor="middle" class="ar white" font-size="38" font-weight="900">داخل الخنادق: حرب قاسية وطويلة</text>
<text x="450" y="504" text-anchor="middle" class="ar white" font-size="25">نستعمل رسوماً رمزية تربوية دون مشاهد دموية</text>
</svg>