<svg xmlns="http://www.w3.org/2000/svg" viewBox="0 0 980 620">
<defs>
<filter id="shadow" x="-20%" y="-20%" width="140%" height="140%"><feDropShadow dx="0" dy="8" stdDeviation="8" flood-color="#07101d" flood-opacity=".35"/></filter>
<linearGradient id="paper" x1="0" x2="1"><stop stop-color="#f7e4bd"/><stop offset="1" stop-color="#d2aa72"/></linearGradient>
<linearGradient id="sea" x1="0" y1="0" x2="1" y2="1"><stop stop-color="#12324c"/><stop offset="1" stop-color="#0a1424"/></linearGradient>
<linearGradient id="gold" x1="0" y1="0" x2="1" y2="1"><stop stop-color="#fff0a5"/><stop offset=".5" stop-color="#d6a83e"/><stop offset="1" stop-color="#8c5d12"/></linearGradient>
<style><![CDATA[
.ar{font-family:'Amiri','Noto Naskh Arabic','Tahoma',sans-serif;direction:rtl}
.small{font-size:18px;fill:#2b2116;font-weight:700}.label{font-size:28px;fill:#2b2116;font-weight:800}.white{fill:#fff7df}.stroke{stroke:#3d2b1a;stroke-width:3;stroke-linecap:round;stroke-linejoin:round}
]]></style>
</defs>
<rect width="980" height="620" rx="42" fill="#1d2738"/>
<path d="M110 260 H870 V520 H110Z" fill="#d6bd86" stroke="#5b3d22" stroke-width="8" filter="url(#shadow)"/>
<path d="M70 260 H910 L490 90Z" fill="#b5894d" stroke="#5b3d22" stroke-width="8"/>
<g fill="#825b36"><rect x="170" y="310" width="70" height="210"/><rect x="315" y="310" width="70" height="210"/><rect x="460" y="310" width="70" height="210"/><rect x="605" y="310" width="70" height="210"/><rect x="750" y="310" width="70" height="210"/></g>
<g transform="translate(332 340)"><rect width="320" height="135" rx="12" fill="#f7e4bd" stroke="#5a371c" stroke-width="5"/><text x="160" y="55" text-anchor="middle" class="ar" font-size="25" font-weight="900">معاهدة فرساي</text><circle cx="250" cy="92" r="28" fill="#a51f23" opacity=".9"/><path d="M48 91 H190" stroke="#5a371c" stroke-width="7" stroke-linecap="round"/></g>
<text x="490" y="65" text-anchor="middle" class="ar white" font-size="38" font-weight="900">قصر فرساي 1919</text>
<text x="490" y="580" text-anchor="middle" class="ar white" font-size="24">شروط قاسية، خريطة جديدة، وعالم يبحث عن السلم</text>
</svg>