<svg xmlns="http://www.w3.org/2000/svg" viewBox="0 0 780 260" role="img" aria-labelledby="title desc">
  <title id="title">Café L’Empreinte 24 Agadir</title>
  <desc id="desc">Logo café avec empreinte digitale, tasse de café et indication 24/24</desc>
  <defs>
    <linearGradient id="gold" x1="0" x2="1" y1="0" y2="1">
      <stop offset="0" stop-color="#f4d08a"/>
      <stop offset="0.5" stop-color="#c8913d"/>
      <stop offset="1" stop-color="#7a4a1e"/>
    </linearGradient>
    <linearGradient id="brown" x1="0" x2="1" y1="0" y2="1">
      <stop offset="0" stop-color="#2b160c"/>
      <stop offset="1" stop-color="#6b3b1d"/>
    </linearGradient>
    <filter id="soft" x="-10%" y="-10%" width="120%" height="120%">
      <feDropShadow dx="0" dy="8" stdDeviation="9" flood-color="#2b160c" flood-opacity="0.16"/>
    </filter>
  </defs>
  <rect width="780" height="260" rx="28" fill="#fbf4ea" opacity="0"/>
  <g transform="translate(34 34)" filter="url(#soft)">
    <circle cx="92" cy="92" r="80" fill="#fff7ec" stroke="url(#gold)" stroke-width="5"/>
    <path d="M52 112c9 17 28 27 48 26s37-13 45-29" fill="none" stroke="#2b160c" stroke-width="9" stroke-linecap="round"/>
    <path d="M49 113h95c-3 20-21 35-48 35-25 0-43-15-47-35z" fill="url(#brown)"/>
    <path d="M147 116c22 2 25 35 1 42" fill="none" stroke="#2b160c" stroke-width="8" stroke-linecap="round"/>
    <path d="M48 159c22 11 76 11 103 0" fill="none" stroke="#2b160c" stroke-width="8" stroke-linecap="round"/>
    <path d="M96 83c12-17-6-26 3-43 15 14 23 31 5 45" fill="url(#gold)"/>
    <g fill="none" stroke="url(#gold)" stroke-width="6" stroke-linecap="round">
      <path d="M48 72c12-30 35-45 60-42 25 3 44 24 47 51"/>
      <path d="M57 79c8-25 29-39 51-36 22 3 37 22 39 46"/>
      <path d="M66 85c6-20 23-31 41-29 18 2 30 18 32 38"/>
      <path d="M76 93c3-15 16-24 30-22 14 2 23 14 24 30"/>
      <path d="M86 100c1-9 9-15 18-14 9 1 15 9 16 18"/>
    </g>
  </g>
  <g transform="translate(218 54)">
    <text x="0" y="42" font-family="Georgia, 'Times New Roman', serif" font-size="32" fill="#c8913d">Café</text>
    <text x="0" y="108" font-family="Georgia, 'Times New Roman', serif" font-size="72" fill="#32190d" letter-spacing="-2">L’Empreinte</text>
    <g transform="translate(454 44)">
      <path d="M10 78a66 66 0 1 1 113-47" fill="none" stroke="url(#gold)" stroke-width="4" stroke-linecap="round"/>
      <path d="M82 0v14M126 38l-12 8M129 94h-15" stroke="url(#gold)" stroke-width="6" stroke-linecap="round"/>
      <text x="7" y="103" font-family="Georgia, 'Times New Roman', serif" font-size="92" fill="url(#gold)">24</text>
    </g>
    <line x1="0" y1="145" x2="145" y2="145" stroke="#c8913d" stroke-width="2"/>
    <path d="M171 135c10 11 10 23 0 34-10-11-10-23 0-34zm5 0c10 11 10 23 0 34" fill="#c8913d" opacity=".95"/>
    <line x1="200" y1="145" x2="360" y2="145" stroke="#c8913d" stroke-width="2"/>
    <text x="116" y="196" font-family="Arial, sans-serif" font-size="24" fill="#4e2b18" letter-spacing="16">AGADIR</text>
  </g>
</svg>
